<svg width="16" height="16" xmlns="http://www.w3.org/2000/svg" xmlns:xlink="http://www.w3.org/1999/xlink" overflow="hidden"><defs><clipPath id="clip0"><rect x="356" y="260" width="16" height="16"/></clipPath></defs><g clip-path="url(#clip0)" transform="translate(-356 -260)"><path d="M358 260C356.895 260 356 260.895 356 262L356 274C356 275.105 356.895 276 358 276L370 276C371.105 276 372 275.105 372 274L372 262C372 260.895 371.105 260 370 260L358 260ZM368.03 264.97C368.319 265.259 368.324 265.725 368.041 266.02L364.049 271.01C363.767 271.314 363.293 271.331 362.989 271.049 362.982 271.043 362.976 271.037 362.969 271.03L360.324 268.384C360.021 268.102 360.004 267.627 360.287 267.324 360.569 267.021 361.044 267.004 361.347 267.287 361.359 267.299 361.372 267.311 361.384 267.324L363.478 269.417 366.951 264.992C367.232 264.688 367.707 264.669 368.011 264.951 368.018 264.957 368.024 264.963 368.031 264.97Z" fill="#FCA937"/></g></svg>